0
SECTION
2
HEADER
9
$ACADVER
1
AC1009
0
ENDSEC
0
SECTION
2
ENTITIES
0
LINE
8
0
10
-60.0000
20
-50.0000
30
0
11
60.0000
21
-50.0000
31
0
0
LINE
8
0
10
62.0000
20
-48.0000
30
0
11
62.0000
21
48.0000
31
0
0
LINE
8
0
10
60.0000
20
50.0000
30
0
11
-60.0000
21
50.0000
31
0
0
LINE
8
0
10
-62.0000
20
48.0000
30
0
11
-62.0000
21
-48.0000
31
0
0
ARC
8
0
10
60.0000
20
-48.0000
30
0
40
2.0000
50
270.0000
51
360.0000
0
ARC
8
0
10
60.0000
20
48.0000
30
0
40
2.0000
50
0.0000
51
90.0000
0
ARC
8
0
10
-60.0000
20
48.0000
30
0
40
2.0000
50
90.0000
51
180.0000
0
ARC
8
0
10
-60.0000
20
-48.0000
30
0
40
2.0000
50
180.0000
51
270.0000
0
CIRCLE
8
0
10
-49.5000
20
-31.5000
30
0
40
3.3500
0
CIRCLE
8
0
10
-40.5000
20
-31.5000
30
0
40
3.3500
0
CIRCLE
8
0
10
-31.5000
20
-31.5000
30
0
40
3.3500
0
CIRCLE
8
0
10
-22.5000
20
-31.5000
30
0
40
3.3500
0
CIRCLE
8
0
10
-13.5000
20
-31.5000
30
0
40
3.3500
0
CIRCLE
8
0
10
-4.5000
20
-31.5000
30
0
40
3.3500
0
CIRCLE
8
0
10
4.5000
20
-31.5000
30
0
40
3.3500
0
CIRCLE
8
0
10
13.5000
20
-31.5000
30
0
40
3.3500
0
CIRCLE
8
0
10
22.5000
20
-31.5000
30
0
40
3.3500
0
CIRCLE
8
0
10
31.5000
20
-31.5000
30
0
40
3.3500
0
CIRCLE
8
0
10
40.5000
20
-31.5000
30
0
40
3.3500
0
CIRCLE
8
0
10
49.5000
20
-31.5000
30
0
40
3.3500
0
CIRCLE
8
0
10
-49.5000
20
-22.5000
30
0
40
3.3500
0
CIRCLE
8
0
10
-40.5000
20
-22.5000
30
0
40
3.3500
0
CIRCLE
8
0
10
-31.5000
20
-22.5000
30
0
40
3.3500
0
CIRCLE
8
0
10
-22.5000
20
-22.5000
30
0
40
3.3500
0
CIRCLE
8
0
10
-13.5000
20
-22.5000
30
0
40
3.3500
0
CIRCLE
8
0
10
-4.5000
20
-22.5000
30
0
40
3.3500
0
CIRCLE
8
0
10
4.5000
20
-22.5000
30
0
40
3.3500
0
CIRCLE
8
0
10
13.5000
20
-22.5000
30
0
40
3.3500
0
CIRCLE
8
0
10
22.5000
20
-22.5000
30
0
40
3.3500
0
CIRCLE
8
0
10
31.5000
20
-22.5000
30
0
40
3.3500
0
CIRCLE
8
0
10
40.5000
20
-22.5000
30
0
40
3.3500
0
CIRCLE
8
0
10
49.5000
20
-22.5000
30
0
40
3.3500
0
CIRCLE
8
0
10
-49.5000
20
-13.5000
30
0
40
3.3500
0
CIRCLE
8
0
10
-40.5000
20
-13.5000
30
0
40
3.3500
0
CIRCLE
8
0
10
-31.5000
20
-13.5000
30
0
40
3.3500
0
CIRCLE
8
0
10
-22.5000
20
-13.5000
30
0
40
3.3500
0
CIRCLE
8
0
10
-13.5000
20
-13.5000
30
0
40
3.3500
0
CIRCLE
8
0
10
-4.5000
20
-13.5000
30
0
40
3.3500
0
CIRCLE
8
0
10
4.5000
20
-13.5000
30
0
40
3.3500
0
CIRCLE
8
0
10
13.5000
20
-13.5000
30
0
40
3.3500
0
CIRCLE
8
0
10
22.5000
20
-13.5000
30
0
40
3.3500
0
CIRCLE
8
0
10
31.5000
20
-13.5000
30
0
40
3.3500
0
CIRCLE
8
0
10
40.5000
20
-13.5000
30
0
40
3.3500
0
CIRCLE
8
0
10
49.5000
20
-13.5000
30
0
40
3.3500
0
CIRCLE
8
0
10
-49.5000
20
-4.5000
30
0
40
3.3500
0
CIRCLE
8
0
10
-40.5000
20
-4.5000
30
0
40
3.3500
0
CIRCLE
8
0
10
-31.5000
20
-4.5000
30
0
40
3.3500
0
CIRCLE
8
0
10
-22.5000
20
-4.5000
30
0
40
3.3500
0
CIRCLE
8
0
10
-13.5000
20
-4.5000
30
0
40
3.3500
0
CIRCLE
8
0
10
-4.5000
20
-4.5000
30
0
40
3.3500
0
CIRCLE
8
0
10
4.5000
20
-4.5000
30
0
40
3.3500
0
CIRCLE
8
0
10
13.5000
20
-4.5000
30
0
40
3.3500
0
CIRCLE
8
0
10
22.5000
20
-4.5000
30
0
40
3.3500
0
CIRCLE
8
0
10
31.5000
20
-4.5000
30
0
40
3.3500
0
CIRCLE
8
0
10
40.5000
20
-4.5000
30
0
40
3.3500
0
CIRCLE
8
0
10
49.5000
20
-4.5000
30
0
40
3.3500
0
CIRCLE
8
0
10
-49.5000
20
4.5000
30
0
40
3.3500
0
CIRCLE
8
0
10
-40.5000
20
4.5000
30
0
40
3.3500
0
CIRCLE
8
0
10
-31.5000
20
4.5000
30
0
40
3.3500
0
CIRCLE
8
0
10
-22.5000
20
4.5000
30
0
40
3.3500
0
CIRCLE
8
0
10
-13.5000
20
4.5000
30
0
40
3.3500
0
CIRCLE
8
0
10
-4.5000
20
4.5000
30
0
40
3.3500
0
CIRCLE
8
0
10
4.5000
20
4.5000
30
0
40
3.3500
0
CIRCLE
8
0
10
13.5000
20
4.5000
30
0
40
3.3500
0
CIRCLE
8
0
10
22.5000
20
4.5000
30
0
40
3.3500
0
CIRCLE
8
0
10
31.5000
20
4.5000
30
0
40
3.3500
0
CIRCLE
8
0
10
40.5000
20
4.5000
30
0
40
3.3500
0
CIRCLE
8
0
10
49.5000
20
4.5000
30
0
40
3.3500
0
CIRCLE
8
0
10
-49.5000
20
13.5000
30
0
40
3.3500
0
CIRCLE
8
0
10
-40.5000
20
13.5000
30
0
40
3.3500
0
CIRCLE
8
0
10
-31.5000
20
13.5000
30
0
40
3.3500
0
CIRCLE
8
0
10
-22.5000
20
13.5000
30
0
40
3.3500
0
CIRCLE
8
0
10
-13.5000
20
13.5000
30
0
40
3.3500
0
CIRCLE
8
0
10
-4.5000
20
13.5000
30
0
40
3.3500
0
CIRCLE
8
0
10
4.5000
20
13.5000
30
0
40
3.3500
0
CIRCLE
8
0
10
13.5000
20
13.5000
30
0
40
3.3500
0
CIRCLE
8
0
10
22.5000
20
13.5000
30
0
40
3.3500
0
CIRCLE
8
0
10
31.5000
20
13.5000
30
0
40
3.3500
0
CIRCLE
8
0
10
40.5000
20
13.5000
30
0
40
3.3500
0
CIRCLE
8
0
10
49.5000
20
13.5000
30
0
40
3.3500
0
CIRCLE
8
0
10
-49.5000
20
22.5000
30
0
40
3.3500
0
CIRCLE
8
0
10
-40.5000
20
22.5000
30
0
40
3.3500
0
CIRCLE
8
0
10
-31.5000
20
22.5000
30
0
40
3.3500
0
CIRCLE
8
0
10
-22.5000
20
22.5000
30
0
40
3.3500
0
CIRCLE
8
0
10
-13.5000
20
22.5000
30
0
40
3.3500
0
CIRCLE
8
0
10
-4.5000
20
22.5000
30
0
40
3.3500
0
CIRCLE
8
0
10
4.5000
20
22.5000
30
0
40
3.3500
0
CIRCLE
8
0
10
13.5000
20
22.5000
30
0
40
3.3500
0
CIRCLE
8
0
10
22.5000
20
22.5000
30
0
40
3.3500
0
CIRCLE
8
0
10
31.5000
20
22.5000
30
0
40
3.3500
0
CIRCLE
8
0
10
40.5000
20
22.5000
30
0
40
3.3500
0
CIRCLE
8
0
10
49.5000
20
22.5000
30
0
40
3.3500
0
CIRCLE
8
0
10
-49.5000
20
31.5000
30
0
40
3.3500
0
CIRCLE
8
0
10
-40.5000
20
31.5000
30
0
40
3.3500
0
CIRCLE
8
0
10
-31.5000
20
31.5000
30
0
40
3.3500
0
CIRCLE
8
0
10
-22.5000
20
31.5000
30
0
40
3.3500
0
CIRCLE
8
0
10
-13.5000
20
31.5000
30
0
40
3.3500
0
CIRCLE
8
0
10
-4.5000
20
31.5000
30
0
40
3.3500
0
CIRCLE
8
0
10
4.5000
20
31.5000
30
0
40
3.3500
0
CIRCLE
8
0
10
13.5000
20
31.5000
30
0
40
3.3500
0
CIRCLE
8
0
10
22.5000
20
31.5000
30
0
40
3.3500
0
CIRCLE
8
0
10
31.5000
20
31.5000
30
0
40
3.3500
0
CIRCLE
8
0
10
40.5000
20
31.5000
30
0
40
3.3500
0
CIRCLE
8
0
10
49.5000
20
31.5000
30
0
40
3.3500
0
CIRCLE
8
0
10
-44.0000
20
-45.0000
30
0
40
2.2500
0
CIRCLE
8
0
10
-44.0000
20
45.0000
30
0
40
2.2500
0
CIRCLE
8
0
10
44.0000
20
-45.0000
30
0
40
2.2500
0
CIRCLE
8
0
10
44.0000
20
45.0000
30
0
40
2.2500
0
CIRCLE
8
0
10
-27.0000
20
-38.8000
30
0
40
1.7000
0
CIRCLE
8
0
10
-27.0000
20
38.8000
30
0
40
1.7000
0
CIRCLE
8
0
10
27.0000
20
-38.8000
30
0
40
1.7000
0
CIRCLE
8
0
10
27.0000
20
38.8000
30
0
40
1.7000
0
CIRCLE
8
0
10
-15.0000
20
-46.0000
30
0
40
1.7000
0
CIRCLE
8
0
10
15.0000
20
-46.0000
30
0
40
1.7000
0
CIRCLE
8
0
10
-59.0000
20
40.0000
30
0
40
1.5000
0
CIRCLE
8
0
10
59.0000
20
40.0000
30
0
40
1.5000
0
ENDSEC
0
EOF
