0
SECTION
2
HEADER
9
$ACADVER
1
AC1009
0
ENDSEC
0
SECTION
2
ENTITIES
0
LINE
8
0
10
55.3000
20
-100.0000
30
0
11
68.0000
21
-100.0000
31
0
0
LINE
8
0
10
69.0000
20
-99.0000
30
0
11
69.0000
21
49.0000
31
0
0
LINE
8
0
10
68.0000
20
50.0000
30
0
11
55.3000
21
50.0000
31
0
0
LINE
8
0
10
54.3000
20
49.0000
30
0
11
54.3000
21
-99.0000
31
0
0
ARC
8
0
10
68.0000
20
-99.0000
30
0
40
1.0000
50
270.0000
51
360.0000
0
ARC
8
0
10
68.0000
20
49.0000
30
0
40
1.0000
50
0.0000
51
90.0000
0
ARC
8
0
10
55.3000
20
49.0000
30
0
40
1.0000
50
90.0000
51
180.0000
0
ARC
8
0
10
55.3000
20
-99.0000
30
0
40
1.0000
50
180.0000
51
270.0000
0
CIRCLE
8
0
10
64.2000
20
-95.0000
30
0
40
1.7000
0
CIRCLE
8
0
10
64.2000
20
-70.0000
30
0
40
1.7000
0
CIRCLE
8
0
10
64.2000
20
-45.0000
30
0
40
1.7000
0
CIRCLE
8
0
10
64.2000
20
-20.0000
30
0
40
1.7000
0
CIRCLE
8
0
10
64.2000
20
5.0000
30
0
40
1.7000
0
CIRCLE
8
0
10
64.2000
20
30.0000
30
0
40
1.7000
0
CIRCLE
8
0
10
64.2000
20
46.0000
30
0
40
1.7000
0
CIRCLE
8
0
10
59.0000
20
40.0000
30
0
40
2.5000
0
ENDSEC
0
EOF
