0
SECTION
2
HEADER
9
$ACADVER
1
AC1009
0
ENDSEC
0
SECTION
2
ENTITIES
0
LINE
8
0
10
-20.0000
20
-9.0000
30
0
11
0.0000
21
-9.0000
31
0
0
ARC
8
0
10
0.0000
20
-7.0000
30
0
40
2.0000
50
270.0000
51
360.0000
0
LINE
8
0
10
2.0000
20
-7.0000
30
0
11
2.0000
21
-2.0000
31
0
0
ARC
8
0
10
4.0000
20
-2.0000
30
0
40
2.0000
50
90.0000
51
180.0000
0
LINE
8
0
10
4.0000
20
0.0000
30
0
11
48.0000
21
0.0000
31
0
0
ARC
8
0
10
48.0000
20
2.0000
30
0
40
2.0000
50
270.0000
51
360.0000
0
LINE
8
0
10
50.0000
20
2.0000
30
0
11
50.0000
21
18.0000
31
0
0
ARC
8
0
10
48.0000
20
18.0000
30
0
40
2.0000
50
0.0000
51
90.0000
0
LINE
8
0
10
48.0000
20
20.0000
30
0
11
-20.0000
21
20.0000
31
0
0
ARC
8
0
10
-20.0000
20
18.0000
30
0
40
2.0000
50
90.0000
51
180.0000
0
LINE
8
0
10
-22.0000
20
18.0000
30
0
11
-22.0000
21
-7.0000
31
0
0
ARC
8
0
10
-20.0000
20
-7.0000
30
0
40
2.0000
50
180.0000
51
270.0000
0
CIRCLE
8
0
10
-17.5000
20
12.0000
30
0
40
1.7000
0
CIRCLE
8
0
10
-2.5000
20
-4.0000
30
0
40
1.7000
0
CIRCLE
8
0
10
-17.5000
20
-4.0000
30
0
40
1.7000
0
CIRCLE
8
0
10
20.0000
20
10.0000
30
0
40
2.2500
0
CIRCLE
8
0
10
40.0000
20
10.0000
30
0
40
2.2500
0
ENDSEC
0
EOF
