0
SECTION
2
HEADER
9
$ACADVER
1
AC1009
0
ENDSEC
0
SECTION
2
ENTITIES
0
LINE
8
0
10
30.5000
20
-68.5000
30
0
11
30.5000
21
131.5000
31
0
0
LINE
8
0
10
30.5000
20
131.5000
30
0
11
-129.5000
21
131.5000
31
0
0
LINE
8
0
10
-129.5000
20
131.5000
30
0
11
-129.5000
21
-68.5000
31
0
0
LINE
8
0
10
-129.5000
20
-68.5000
30
0
11
-106.5000
21
-68.5000
31
0
0
LINE
8
0
10
-106.5000
20
-68.5000
30
0
11
-106.5000
21
81.5000
31
0
0
LINE
8
0
10
-106.5000
20
81.5000
30
0
11
7.5000
21
81.5000
31
0
0
LINE
8
0
10
7.5000
20
81.5000
30
0
11
7.5000
21
-68.5000
31
0
0
LINE
8
0
10
7.5000
20
-68.5000
30
0
11
30.5000
21
-68.5000
31
0
0
CIRCLE
8
0
10
-124.5000
20
11.5000
30
0
40
2.2500
0
CIRCLE
8
0
10
-124.5000
20
51.5000
30
0
40
2.2500
0
CIRCLE
8
0
10
25.5000
20
11.5000
30
0
40
2.2500
0
CIRCLE
8
0
10
25.5000
20
51.5000
30
0
40
2.2500
0
CIRCLE
8
0
10
-122.5000
20
-62.5000
30
0
40
1.7000
0
CIRCLE
8
0
10
-122.5000
20
-34.5000
30
0
40
1.7000
0
CIRCLE
8
0
10
23.5000
20
-62.5000
30
0
40
1.7000
0
CIRCLE
8
0
10
23.5000
20
-34.5000
30
0
40
1.7000
0
CIRCLE
8
0
10
-122.5000
20
97.5000
30
0
40
1.7000
0
CIRCLE
8
0
10
-122.5000
20
125.5000
30
0
40
1.7000
0
CIRCLE
8
0
10
-113.7000
20
-63.5000
30
0
40
1.7000
0
CIRCLE
8
0
10
14.7000
20
-63.5000
30
0
40
1.7000
0
CIRCLE
8
0
10
-113.7000
20
-38.5000
30
0
40
1.7000
0
CIRCLE
8
0
10
14.7000
20
-38.5000
30
0
40
1.7000
0
CIRCLE
8
0
10
-113.7000
20
-13.5000
30
0
40
1.7000
0
CIRCLE
8
0
10
14.7000
20
-13.5000
30
0
40
1.7000
0
CIRCLE
8
0
10
-113.7000
20
11.5000
30
0
40
1.7000
0
CIRCLE
8
0
10
14.7000
20
11.5000
30
0
40
1.7000
0
CIRCLE
8
0
10
-113.7000
20
36.5000
30
0
40
1.7000
0
CIRCLE
8
0
10
14.7000
20
36.5000
30
0
40
1.7000
0
CIRCLE
8
0
10
-113.7000
20
61.5000
30
0
40
1.7000
0
CIRCLE
8
0
10
14.7000
20
61.5000
30
0
40
1.7000
0
CIRCLE
8
0
10
-113.7000
20
77.5000
30
0
40
1.7000
0
CIRCLE
8
0
10
14.7000
20
77.5000
30
0
40
1.7000
0
ENDSEC
0
EOF
