0
SECTION
2
HEADER
9
$ACADVER
1
AC1009
0
ENDSEC
0
SECTION
2
ENTITIES
0
LINE
8
0
10
55.5000
20
41.0000
30
0
11
32.0000
21
41.0000
31
0
0
LINE
8
0
10
32.0000
20
41.0000
30
0
11
32.0000
21
43.5000
31
0
0
LINE
8
0
10
32.0000
20
43.5000
30
0
11
22.0000
21
43.5000
31
0
0
LINE
8
0
10
22.0000
20
43.5000
30
0
11
22.0000
21
41.0000
31
0
0
LINE
8
0
10
22.0000
20
41.0000
30
0
11
-22.0000
21
41.0000
31
0
0
LINE
8
0
10
-22.0000
20
41.0000
30
0
11
-22.0000
21
43.5000
31
0
0
LINE
8
0
10
-22.0000
20
43.5000
30
0
11
-32.0000
21
43.5000
31
0
0
LINE
8
0
10
-32.0000
20
43.5000
30
0
11
-32.0000
21
41.0000
31
0
0
LINE
8
0
10
-32.0000
20
41.0000
30
0
11
-55.5000
21
41.0000
31
0
0
LINE
8
0
10
-55.5000
20
41.0000
30
0
11
-55.5000
21
-41.0000
31
0
0
LINE
8
0
10
-55.5000
20
-41.0000
30
0
11
-32.0000
21
-41.0000
31
0
0
LINE
8
0
10
-32.0000
20
-41.0000
30
0
11
-32.0000
21
-43.5000
31
0
0
LINE
8
0
10
-32.0000
20
-43.5000
30
0
11
-22.0000
21
-43.5000
31
0
0
LINE
8
0
10
-22.0000
20
-43.5000
30
0
11
-22.0000
21
-41.0000
31
0
0
LINE
8
0
10
-22.0000
20
-41.0000
30
0
11
22.0000
21
-41.0000
31
0
0
LINE
8
0
10
22.0000
20
-41.0000
30
0
11
22.0000
21
-43.5000
31
0
0
LINE
8
0
10
22.0000
20
-43.5000
30
0
11
32.0000
21
-43.5000
31
0
0
LINE
8
0
10
32.0000
20
-43.5000
30
0
11
32.0000
21
-41.0000
31
0
0
LINE
8
0
10
32.0000
20
-41.0000
30
0
11
55.5000
21
-41.0000
31
0
0
LINE
8
0
10
55.5000
20
-41.0000
30
0
11
55.5000
21
41.0000
31
0
0
CIRCLE
8
0
10
-49.5000
20
-31.5000
30
0
40
2.6000
0
CIRCLE
8
0
10
-40.5000
20
-31.5000
30
0
40
2.6000
0
CIRCLE
8
0
10
-31.5000
20
-31.5000
30
0
40
2.6000
0
CIRCLE
8
0
10
-22.5000
20
-31.5000
30
0
40
2.6000
0
CIRCLE
8
0
10
-13.5000
20
-31.5000
30
0
40
2.6000
0
CIRCLE
8
0
10
-4.5000
20
-31.5000
30
0
40
2.6000
0
CIRCLE
8
0
10
4.5000
20
-31.5000
30
0
40
2.6000
0
CIRCLE
8
0
10
13.5000
20
-31.5000
30
0
40
2.6000
0
CIRCLE
8
0
10
22.5000
20
-31.5000
30
0
40
2.6000
0
CIRCLE
8
0
10
31.5000
20
-31.5000
30
0
40
2.6000
0
CIRCLE
8
0
10
40.5000
20
-31.5000
30
0
40
2.6000
0
CIRCLE
8
0
10
49.5000
20
-31.5000
30
0
40
2.6000
0
CIRCLE
8
0
10
-49.5000
20
-22.5000
30
0
40
2.6000
0
CIRCLE
8
0
10
-40.5000
20
-22.5000
30
0
40
2.6000
0
CIRCLE
8
0
10
-31.5000
20
-22.5000
30
0
40
2.6000
0
CIRCLE
8
0
10
-22.5000
20
-22.5000
30
0
40
2.6000
0
CIRCLE
8
0
10
-13.5000
20
-22.5000
30
0
40
2.6000
0
CIRCLE
8
0
10
-4.5000
20
-22.5000
30
0
40
2.6000
0
CIRCLE
8
0
10
4.5000
20
-22.5000
30
0
40
2.6000
0
CIRCLE
8
0
10
13.5000
20
-22.5000
30
0
40
2.6000
0
CIRCLE
8
0
10
22.5000
20
-22.5000
30
0
40
2.6000
0
CIRCLE
8
0
10
31.5000
20
-22.5000
30
0
40
2.6000
0
CIRCLE
8
0
10
40.5000
20
-22.5000
30
0
40
2.6000
0
CIRCLE
8
0
10
49.5000
20
-22.5000
30
0
40
2.6000
0
CIRCLE
8
0
10
-49.5000
20
-13.5000
30
0
40
2.6000
0
CIRCLE
8
0
10
-40.5000
20
-13.5000
30
0
40
2.6000
0
CIRCLE
8
0
10
-31.5000
20
-13.5000
30
0
40
2.6000
0
CIRCLE
8
0
10
-22.5000
20
-13.5000
30
0
40
2.6000
0
CIRCLE
8
0
10
-13.5000
20
-13.5000
30
0
40
2.6000
0
CIRCLE
8
0
10
-4.5000
20
-13.5000
30
0
40
2.6000
0
CIRCLE
8
0
10
4.5000
20
-13.5000
30
0
40
2.6000
0
CIRCLE
8
0
10
13.5000
20
-13.5000
30
0
40
2.6000
0
CIRCLE
8
0
10
22.5000
20
-13.5000
30
0
40
2.6000
0
CIRCLE
8
0
10
31.5000
20
-13.5000
30
0
40
2.6000
0
CIRCLE
8
0
10
40.5000
20
-13.5000
30
0
40
2.6000
0
CIRCLE
8
0
10
49.5000
20
-13.5000
30
0
40
2.6000
0
CIRCLE
8
0
10
-49.5000
20
-4.5000
30
0
40
2.6000
0
CIRCLE
8
0
10
-40.5000
20
-4.5000
30
0
40
2.6000
0
CIRCLE
8
0
10
-31.5000
20
-4.5000
30
0
40
2.6000
0
CIRCLE
8
0
10
-22.5000
20
-4.5000
30
0
40
2.6000
0
CIRCLE
8
0
10
-13.5000
20
-4.5000
30
0
40
2.6000
0
CIRCLE
8
0
10
-4.5000
20
-4.5000
30
0
40
2.6000
0
CIRCLE
8
0
10
4.5000
20
-4.5000
30
0
40
2.6000
0
CIRCLE
8
0
10
13.5000
20
-4.5000
30
0
40
2.6000
0
CIRCLE
8
0
10
22.5000
20
-4.5000
30
0
40
2.6000
0
CIRCLE
8
0
10
31.5000
20
-4.5000
30
0
40
2.6000
0
CIRCLE
8
0
10
40.5000
20
-4.5000
30
0
40
2.6000
0
CIRCLE
8
0
10
49.5000
20
-4.5000
30
0
40
2.6000
0
CIRCLE
8
0
10
-49.5000
20
4.5000
30
0
40
2.6000
0
CIRCLE
8
0
10
-40.5000
20
4.5000
30
0
40
2.6000
0
CIRCLE
8
0
10
-31.5000
20
4.5000
30
0
40
2.6000
0
CIRCLE
8
0
10
-22.5000
20
4.5000
30
0
40
2.6000
0
CIRCLE
8
0
10
-13.5000
20
4.5000
30
0
40
2.6000
0
CIRCLE
8
0
10
-4.5000
20
4.5000
30
0
40
2.6000
0
CIRCLE
8
0
10
4.5000
20
4.5000
30
0
40
2.6000
0
CIRCLE
8
0
10
13.5000
20
4.5000
30
0
40
2.6000
0
CIRCLE
8
0
10
22.5000
20
4.5000
30
0
40
2.6000
0
CIRCLE
8
0
10
31.5000
20
4.5000
30
0
40
2.6000
0
CIRCLE
8
0
10
40.5000
20
4.5000
30
0
40
2.6000
0
CIRCLE
8
0
10
49.5000
20
4.5000
30
0
40
2.6000
0
CIRCLE
8
0
10
-49.5000
20
13.5000
30
0
40
2.6000
0
CIRCLE
8
0
10
-40.5000
20
13.5000
30
0
40
2.6000
0
CIRCLE
8
0
10
-31.5000
20
13.5000
30
0
40
2.6000
0
CIRCLE
8
0
10
-22.5000
20
13.5000
30
0
40
2.6000
0
CIRCLE
8
0
10
-13.5000
20
13.5000
30
0
40
2.6000
0
CIRCLE
8
0
10
-4.5000
20
13.5000
30
0
40
2.6000
0
CIRCLE
8
0
10
4.5000
20
13.5000
30
0
40
2.6000
0
CIRCLE
8
0
10
13.5000
20
13.5000
30
0
40
2.6000
0
CIRCLE
8
0
10
22.5000
20
13.5000
30
0
40
2.6000
0
CIRCLE
8
0
10
31.5000
20
13.5000
30
0
40
2.6000
0
CIRCLE
8
0
10
40.5000
20
13.5000
30
0
40
2.6000
0
CIRCLE
8
0
10
49.5000
20
13.5000
30
0
40
2.6000
0
CIRCLE
8
0
10
-49.5000
20
22.5000
30
0
40
2.6000
0
CIRCLE
8
0
10
-40.5000
20
22.5000
30
0
40
2.6000
0
CIRCLE
8
0
10
-31.5000
20
22.5000
30
0
40
2.6000
0
CIRCLE
8
0
10
-22.5000
20
22.5000
30
0
40
2.6000
0
CIRCLE
8
0
10
-13.5000
20
22.5000
30
0
40
2.6000
0
CIRCLE
8
0
10
-4.5000
20
22.5000
30
0
40
2.6000
0
CIRCLE
8
0
10
4.5000
20
22.5000
30
0
40
2.6000
0
CIRCLE
8
0
10
13.5000
20
22.5000
30
0
40
2.6000
0
CIRCLE
8
0
10
22.5000
20
22.5000
30
0
40
2.6000
0
CIRCLE
8
0
10
31.5000
20
22.5000
30
0
40
2.6000
0
CIRCLE
8
0
10
40.5000
20
22.5000
30
0
40
2.6000
0
CIRCLE
8
0
10
49.5000
20
22.5000
30
0
40
2.6000
0
CIRCLE
8
0
10
-49.5000
20
31.5000
30
0
40
2.6000
0
CIRCLE
8
0
10
-40.5000
20
31.5000
30
0
40
2.6000
0
CIRCLE
8
0
10
-31.5000
20
31.5000
30
0
40
2.6000
0
CIRCLE
8
0
10
-22.5000
20
31.5000
30
0
40
2.6000
0
CIRCLE
8
0
10
-13.5000
20
31.5000
30
0
40
2.6000
0
CIRCLE
8
0
10
-4.5000
20
31.5000
30
0
40
2.6000
0
CIRCLE
8
0
10
4.5000
20
31.5000
30
0
40
2.6000
0
CIRCLE
8
0
10
13.5000
20
31.5000
30
0
40
2.6000
0
CIRCLE
8
0
10
22.5000
20
31.5000
30
0
40
2.6000
0
CIRCLE
8
0
10
31.5000
20
31.5000
30
0
40
2.6000
0
CIRCLE
8
0
10
40.5000
20
31.5000
30
0
40
2.6000
0
CIRCLE
8
0
10
49.5000
20
31.5000
30
0
40
2.6000
0
CIRCLE
8
0
10
-27.0000
20
-38.8000
30
0
40
1.7000
0
CIRCLE
8
0
10
-27.0000
20
38.8000
30
0
40
1.7000
0
CIRCLE
8
0
10
27.0000
20
-38.8000
30
0
40
1.7000
0
CIRCLE
8
0
10
27.0000
20
38.8000
30
0
40
1.7000
0
ENDSEC
0
EOF
