0
SECTION
2
HEADER
9
$ACADVER
1
AC1009
0
ENDSEC
0
SECTION
2
ENTITIES
0
LINE
8
0
10
-54.0000
20
-49.0000
30
0
11
54.0000
21
-49.0000
31
0
0
LINE
8
0
10
56.0000
20
-47.0000
30
0
11
56.0000
21
47.0000
31
0
0
LINE
8
0
10
54.0000
20
49.0000
30
0
11
-54.0000
21
49.0000
31
0
0
LINE
8
0
10
-56.0000
20
47.0000
30
0
11
-56.0000
21
-47.0000
31
0
0
ARC
8
0
10
54.0000
20
-47.0000
30
0
40
2.0000
50
270.0000
51
360.0000
0
ARC
8
0
10
54.0000
20
47.0000
30
0
40
2.0000
50
0.0000
51
90.0000
0
ARC
8
0
10
-54.0000
20
47.0000
30
0
40
2.0000
50
90.0000
51
180.0000
0
ARC
8
0
10
-54.0000
20
-47.0000
30
0
40
2.0000
50
180.0000
51
270.0000
0
CIRCLE
8
0
10
-49.5000
20
-31.5000
30
0
40
2.9000
0
CIRCLE
8
0
10
-40.5000
20
-31.5000
30
0
40
2.9000
0
CIRCLE
8
0
10
-31.5000
20
-31.5000
30
0
40
2.9000
0
CIRCLE
8
0
10
-22.5000
20
-31.5000
30
0
40
2.9000
0
CIRCLE
8
0
10
-13.5000
20
-31.5000
30
0
40
2.9000
0
CIRCLE
8
0
10
-4.5000
20
-31.5000
30
0
40
2.9000
0
CIRCLE
8
0
10
4.5000
20
-31.5000
30
0
40
2.9000
0
CIRCLE
8
0
10
13.5000
20
-31.5000
30
0
40
2.9000
0
CIRCLE
8
0
10
22.5000
20
-31.5000
30
0
40
2.9000
0
CIRCLE
8
0
10
31.5000
20
-31.5000
30
0
40
2.9000
0
CIRCLE
8
0
10
40.5000
20
-31.5000
30
0
40
2.9000
0
CIRCLE
8
0
10
49.5000
20
-31.5000
30
0
40
2.9000
0
CIRCLE
8
0
10
-49.5000
20
-22.5000
30
0
40
2.9000
0
CIRCLE
8
0
10
-40.5000
20
-22.5000
30
0
40
2.9000
0
CIRCLE
8
0
10
-31.5000
20
-22.5000
30
0
40
2.9000
0
CIRCLE
8
0
10
-22.5000
20
-22.5000
30
0
40
2.9000
0
CIRCLE
8
0
10
-13.5000
20
-22.5000
30
0
40
2.9000
0
CIRCLE
8
0
10
-4.5000
20
-22.5000
30
0
40
2.9000
0
CIRCLE
8
0
10
4.5000
20
-22.5000
30
0
40
2.9000
0
CIRCLE
8
0
10
13.5000
20
-22.5000
30
0
40
2.9000
0
CIRCLE
8
0
10
22.5000
20
-22.5000
30
0
40
2.9000
0
CIRCLE
8
0
10
31.5000
20
-22.5000
30
0
40
2.9000
0
CIRCLE
8
0
10
40.5000
20
-22.5000
30
0
40
2.9000
0
CIRCLE
8
0
10
49.5000
20
-22.5000
30
0
40
2.9000
0
CIRCLE
8
0
10
-49.5000
20
-13.5000
30
0
40
2.9000
0
CIRCLE
8
0
10
-40.5000
20
-13.5000
30
0
40
2.9000
0
CIRCLE
8
0
10
-31.5000
20
-13.5000
30
0
40
2.9000
0
CIRCLE
8
0
10
-22.5000
20
-13.5000
30
0
40
2.9000
0
CIRCLE
8
0
10
-13.5000
20
-13.5000
30
0
40
2.9000
0
CIRCLE
8
0
10
-4.5000
20
-13.5000
30
0
40
2.9000
0
CIRCLE
8
0
10
4.5000
20
-13.5000
30
0
40
2.9000
0
CIRCLE
8
0
10
13.5000
20
-13.5000
30
0
40
2.9000
0
CIRCLE
8
0
10
22.5000
20
-13.5000
30
0
40
2.9000
0
CIRCLE
8
0
10
31.5000
20
-13.5000
30
0
40
2.9000
0
CIRCLE
8
0
10
40.5000
20
-13.5000
30
0
40
2.9000
0
CIRCLE
8
0
10
49.5000
20
-13.5000
30
0
40
2.9000
0
CIRCLE
8
0
10
-49.5000
20
-4.5000
30
0
40
2.9000
0
CIRCLE
8
0
10
-40.5000
20
-4.5000
30
0
40
2.9000
0
CIRCLE
8
0
10
-31.5000
20
-4.5000
30
0
40
2.9000
0
CIRCLE
8
0
10
-22.5000
20
-4.5000
30
0
40
2.9000
0
CIRCLE
8
0
10
-13.5000
20
-4.5000
30
0
40
2.9000
0
CIRCLE
8
0
10
-4.5000
20
-4.5000
30
0
40
2.9000
0
CIRCLE
8
0
10
4.5000
20
-4.5000
30
0
40
2.9000
0
CIRCLE
8
0
10
13.5000
20
-4.5000
30
0
40
2.9000
0
CIRCLE
8
0
10
22.5000
20
-4.5000
30
0
40
2.9000
0
CIRCLE
8
0
10
31.5000
20
-4.5000
30
0
40
2.9000
0
CIRCLE
8
0
10
40.5000
20
-4.5000
30
0
40
2.9000
0
CIRCLE
8
0
10
49.5000
20
-4.5000
30
0
40
2.9000
0
CIRCLE
8
0
10
-49.5000
20
4.5000
30
0
40
2.9000
0
CIRCLE
8
0
10
-40.5000
20
4.5000
30
0
40
2.9000
0
CIRCLE
8
0
10
-31.5000
20
4.5000
30
0
40
2.9000
0
CIRCLE
8
0
10
-22.5000
20
4.5000
30
0
40
2.9000
0
CIRCLE
8
0
10
-13.5000
20
4.5000
30
0
40
2.9000
0
CIRCLE
8
0
10
-4.5000
20
4.5000
30
0
40
2.9000
0
CIRCLE
8
0
10
4.5000
20
4.5000
30
0
40
2.9000
0
CIRCLE
8
0
10
13.5000
20
4.5000
30
0
40
2.9000
0
CIRCLE
8
0
10
22.5000
20
4.5000
30
0
40
2.9000
0
CIRCLE
8
0
10
31.5000
20
4.5000
30
0
40
2.9000
0
CIRCLE
8
0
10
40.5000
20
4.5000
30
0
40
2.9000
0
CIRCLE
8
0
10
49.5000
20
4.5000
30
0
40
2.9000
0
CIRCLE
8
0
10
-49.5000
20
13.5000
30
0
40
2.9000
0
CIRCLE
8
0
10
-40.5000
20
13.5000
30
0
40
2.9000
0
CIRCLE
8
0
10
-31.5000
20
13.5000
30
0
40
2.9000
0
CIRCLE
8
0
10
-22.5000
20
13.5000
30
0
40
2.9000
0
CIRCLE
8
0
10
-13.5000
20
13.5000
30
0
40
2.9000
0
CIRCLE
8
0
10
-4.5000
20
13.5000
30
0
40
2.9000
0
CIRCLE
8
0
10
4.5000
20
13.5000
30
0
40
2.9000
0
CIRCLE
8
0
10
13.5000
20
13.5000
30
0
40
2.9000
0
CIRCLE
8
0
10
22.5000
20
13.5000
30
0
40
2.9000
0
CIRCLE
8
0
10
31.5000
20
13.5000
30
0
40
2.9000
0
CIRCLE
8
0
10
40.5000
20
13.5000
30
0
40
2.9000
0
CIRCLE
8
0
10
49.5000
20
13.5000
30
0
40
2.9000
0
CIRCLE
8
0
10
-49.5000
20
22.5000
30
0
40
2.9000
0
CIRCLE
8
0
10
-40.5000
20
22.5000
30
0
40
2.9000
0
CIRCLE
8
0
10
-31.5000
20
22.5000
30
0
40
2.9000
0
CIRCLE
8
0
10
-22.5000
20
22.5000
30
0
40
2.9000
0
CIRCLE
8
0
10
-13.5000
20
22.5000
30
0
40
2.9000
0
CIRCLE
8
0
10
-4.5000
20
22.5000
30
0
40
2.9000
0
CIRCLE
8
0
10
4.5000
20
22.5000
30
0
40
2.9000
0
CIRCLE
8
0
10
13.5000
20
22.5000
30
0
40
2.9000
0
CIRCLE
8
0
10
22.5000
20
22.5000
30
0
40
2.9000
0
CIRCLE
8
0
10
31.5000
20
22.5000
30
0
40
2.9000
0
CIRCLE
8
0
10
40.5000
20
22.5000
30
0
40
2.9000
0
CIRCLE
8
0
10
49.5000
20
22.5000
30
0
40
2.9000
0
CIRCLE
8
0
10
-49.5000
20
31.5000
30
0
40
2.9000
0
CIRCLE
8
0
10
-40.5000
20
31.5000
30
0
40
2.9000
0
CIRCLE
8
0
10
-31.5000
20
31.5000
30
0
40
2.9000
0
CIRCLE
8
0
10
-22.5000
20
31.5000
30
0
40
2.9000
0
CIRCLE
8
0
10
-13.5000
20
31.5000
30
0
40
2.9000
0
CIRCLE
8
0
10
-4.5000
20
31.5000
30
0
40
2.9000
0
CIRCLE
8
0
10
4.5000
20
31.5000
30
0
40
2.9000
0
CIRCLE
8
0
10
13.5000
20
31.5000
30
0
40
2.9000
0
CIRCLE
8
0
10
22.5000
20
31.5000
30
0
40
2.9000
0
CIRCLE
8
0
10
31.5000
20
31.5000
30
0
40
2.9000
0
CIRCLE
8
0
10
40.5000
20
31.5000
30
0
40
2.9000
0
CIRCLE
8
0
10
49.5000
20
31.5000
30
0
40
2.9000
0
CIRCLE
8
0
10
-44.0000
20
-45.0000
30
0
40
3.0000
0
CIRCLE
8
0
10
-44.0000
20
45.0000
30
0
40
3.0000
0
CIRCLE
8
0
10
44.0000
20
-45.0000
30
0
40
3.0000
0
CIRCLE
8
0
10
44.0000
20
45.0000
30
0
40
3.0000
0
ENDSEC
0
EOF
