0
SECTION
2
HEADER
9
$ACADVER
1
AC1009
0
ENDSEC
0
SECTION
2
ENTITIES
0
LINE
8
0
10
-78.0000
20
-100.0000
30
0
11
78.0000
21
-100.0000
31
0
0
LINE
8
0
10
80.0000
20
-98.0000
30
0
11
80.0000
21
98.0000
31
0
0
LINE
8
0
10
78.0000
20
100.0000
30
0
11
-78.0000
21
100.0000
31
0
0
LINE
8
0
10
-80.0000
20
98.0000
30
0
11
-80.0000
21
-98.0000
31
0
0
ARC
8
0
10
78.0000
20
-98.0000
30
0
40
2.0000
50
270.0000
51
360.0000
0
ARC
8
0
10
78.0000
20
98.0000
30
0
40
2.0000
50
0.0000
51
90.0000
0
ARC
8
0
10
-78.0000
20
98.0000
30
0
40
2.0000
50
90.0000
51
180.0000
0
ARC
8
0
10
-78.0000
20
-98.0000
30
0
40
2.0000
50
180.0000
51
270.0000
0
CIRCLE
8
0
10
-70.0000
20
0.0000
30
0
40
5.2000
0
CIRCLE
8
0
10
-75.6569
20
-5.6569
30
0
40
1.6000
0
CIRCLE
8
0
10
-75.6569
20
5.6569
30
0
40
1.6000
0
CIRCLE
8
0
10
-64.3431
20
-5.6569
30
0
40
1.6000
0
CIRCLE
8
0
10
-64.3431
20
5.6569
30
0
40
1.6000
0
CIRCLE
8
0
10
70.0000
20
0.0000
30
0
40
5.2000
0
CIRCLE
8
0
10
64.3431
20
-5.6569
30
0
40
1.6000
0
CIRCLE
8
0
10
64.3431
20
5.6569
30
0
40
1.6000
0
CIRCLE
8
0
10
75.6569
20
-5.6569
30
0
40
1.6000
0
CIRCLE
8
0
10
75.6569
20
5.6569
30
0
40
1.6000
0
CIRCLE
8
0
10
-65.0000
20
-90.0000
30
0
40
2.2500
0
CIRCLE
8
0
10
-65.0000
20
90.0000
30
0
40
2.2500
0
CIRCLE
8
0
10
65.0000
20
-90.0000
30
0
40
2.2500
0
CIRCLE
8
0
10
65.0000
20
90.0000
30
0
40
2.2500
0
ENDSEC
0
EOF
