0
SECTION
2
HEADER
9
$ACADVER
1
AC1009
0
ENDSEC
0
SECTION
2
ENTITIES
0
LINE
8
0
10
-112.6000
20
-60.0000
30
0
11
112.6000
21
-60.0000
31
0
0
LINE
8
0
10
114.6000
20
-58.0000
30
0
11
114.6000
21
58.0000
31
0
0
LINE
8
0
10
112.6000
20
60.0000
30
0
11
-112.6000
21
60.0000
31
0
0
LINE
8
0
10
-114.6000
20
58.0000
30
0
11
-114.6000
21
-58.0000
31
0
0
ARC
8
0
10
112.6000
20
-58.0000
30
0
40
2.0000
50
270.0000
51
360.0000
0
ARC
8
0
10
112.6000
20
58.0000
30
0
40
2.0000
50
0.0000
51
90.0000
0
ARC
8
0
10
-112.6000
20
58.0000
30
0
40
2.0000
50
90.0000
51
180.0000
0
ARC
8
0
10
-112.6000
20
-58.0000
30
0
40
2.0000
50
180.0000
51
270.0000
0
CIRCLE
8
0
10
-70.0000
20
0.0000
30
0
40
4.5000
0
CIRCLE
8
0
10
-88.5000
20
0.0000
30
0
40
2.2500
0
CIRCLE
8
0
10
-51.5000
20
0.0000
30
0
40
2.2500
0
CIRCLE
8
0
10
70.0000
20
0.0000
30
0
40
4.5000
0
CIRCLE
8
0
10
51.5000
20
0.0000
30
0
40
2.2500
0
CIRCLE
8
0
10
88.5000
20
0.0000
30
0
40
2.2500
0
CIRCLE
8
0
10
0.0000
20
36.0000
30
0
40
11.5000
0
CIRCLE
8
0
10
-15.5000
20
20.5000
30
0
40
1.7000
0
CIRCLE
8
0
10
-15.5000
20
51.5000
30
0
40
1.7000
0
CIRCLE
8
0
10
15.5000
20
20.5000
30
0
40
1.7000
0
CIRCLE
8
0
10
15.5000
20
51.5000
30
0
40
1.7000
0
LINE
8
0
10
-2.7500
20
-5.1700
30
0
11
-2.7500
21
6.8300
31
0
0
LINE
8
0
10
2.7500
20
-5.1700
30
0
11
2.7500
21
6.8300
31
0
0
ARC
8
0
10
0.0000
20
6.8300
30
0
40
2.7500
50
0.0000
51
180.0000
0
ARC
8
0
10
0.0000
20
-5.1700
30
0
40
2.7500
50
180.0000
51
360.0000
0
CIRCLE
8
0
10
-12.5000
20
0.8300
30
0
40
1.7000
0
CIRCLE
8
0
10
12.5000
20
0.8300
30
0
40
1.7000
0
CIRCLE
8
0
10
-54.0000
20
-35.0000
30
0
40
1.7000
0
CIRCLE
8
0
10
-26.0000
20
-35.0000
30
0
40
1.7000
0
CIRCLE
8
0
10
-104.6000
20
-45.0000
30
0
40
2.7500
0
CIRCLE
8
0
10
-104.6000
20
45.0000
30
0
40
2.7500
0
CIRCLE
8
0
10
104.6000
20
-45.0000
30
0
40
2.7500
0
CIRCLE
8
0
10
104.6000
20
45.0000
30
0
40
2.7500
0
ENDSEC
0
EOF
