0
SECTION
2
HEADER
9
$ACADVER
1
AC1009
0
ENDSEC
0
SECTION
2
ENTITIES
0
LINE
8
0
10
-78.0000
20
-100.0000
30
0
11
78.0000
21
-100.0000
31
0
0
LINE
8
0
10
80.0000
20
-98.0000
30
0
11
80.0000
21
98.0000
31
0
0
LINE
8
0
10
78.0000
20
100.0000
30
0
11
-78.0000
21
100.0000
31
0
0
LINE
8
0
10
-80.0000
20
98.0000
30
0
11
-80.0000
21
-98.0000
31
0
0
ARC
8
0
10
78.0000
20
-98.0000
30
0
40
2.0000
50
270.0000
51
360.0000
0
ARC
8
0
10
78.0000
20
98.0000
30
0
40
2.0000
50
0.0000
51
90.0000
0
ARC
8
0
10
-78.0000
20
98.0000
30
0
40
2.0000
50
90.0000
51
180.0000
0
ARC
8
0
10
-78.0000
20
-98.0000
30
0
40
2.0000
50
180.0000
51
270.0000
0
LINE
8
0
10
-65.3230
20
2.2728
30
0
11
-63.1411
21
4.4548
31
0
0
LINE
8
0
10
-67.7272
20
4.6770
30
0
11
-65.5452
21
6.8589
31
0
0
ARC
8
0
10
-64.3431
20
5.6569
30
0
40
1.7000
50
-45.0000
51
135.0000
0
ARC
8
0
10
-70.0000
20
0.0000
30
0
40
5.2000
50
64.0821
51
115.9179
0
LINE
8
0
10
-72.2728
20
4.6770
30
0
11
-74.4548
21
6.8589
31
0
0
LINE
8
0
10
-74.6770
20
2.2728
30
0
11
-76.8589
21
4.4548
31
0
0
ARC
8
0
10
-75.6569
20
5.6569
30
0
40
1.7000
50
45.0000
51
225.0000
0
ARC
8
0
10
-70.0000
20
0.0000
30
0
40
5.2000
50
154.0821
51
205.9179
0
LINE
8
0
10
-74.6770
20
-2.2728
30
0
11
-76.8589
21
-4.4548
31
0
0
LINE
8
0
10
-72.2728
20
-4.6770
30
0
11
-74.4548
21
-6.8589
31
0
0
ARC
8
0
10
-75.6569
20
-5.6569
30
0
40
1.7000
50
135.0000
51
315.0000
0
ARC
8
0
10
-70.0000
20
0.0000
30
0
40
5.2000
50
244.0821
51
295.9179
0
LINE
8
0
10
-67.7272
20
-4.6770
30
0
11
-65.5452
21
-6.8589
31
0
0
LINE
8
0
10
-65.3230
20
-2.2728
30
0
11
-63.1411
21
-4.4548
31
0
0
ARC
8
0
10
-64.3431
20
-5.6569
30
0
40
1.7000
50
225.0000
51
405.0000
0
ARC
8
0
10
-70.0000
20
0.0000
30
0
40
5.2000
50
334.0821
51
385.9179
0
LINE
8
0
10
74.6770
20
2.2728
30
0
11
76.8589
21
4.4548
31
0
0
LINE
8
0
10
72.2728
20
4.6770
30
0
11
74.4548
21
6.8589
31
0
0
ARC
8
0
10
75.6569
20
5.6569
30
0
40
1.7000
50
-45.0000
51
135.0000
0
ARC
8
0
10
70.0000
20
0.0000
30
0
40
5.2000
50
64.0821
51
115.9179
0
LINE
8
0
10
67.7272
20
4.6770
30
0
11
65.5452
21
6.8589
31
0
0
LINE
8
0
10
65.3230
20
2.2728
30
0
11
63.1411
21
4.4548
31
0
0
ARC
8
0
10
64.3431
20
5.6569
30
0
40
1.7000
50
45.0000
51
225.0000
0
ARC
8
0
10
70.0000
20
0.0000
30
0
40
5.2000
50
154.0821
51
205.9179
0
LINE
8
0
10
65.3230
20
-2.2728
30
0
11
63.1411
21
-4.4548
31
0
0
LINE
8
0
10
67.7272
20
-4.6770
30
0
11
65.5452
21
-6.8589
31
0
0
ARC
8
0
10
64.3431
20
-5.6569
30
0
40
1.7000
50
135.0000
51
315.0000
0
ARC
8
0
10
70.0000
20
0.0000
30
0
40
5.2000
50
244.0821
51
295.9179
0
LINE
8
0
10
72.2728
20
-4.6770
30
0
11
74.4548
21
-6.8589
31
0
0
LINE
8
0
10
74.6770
20
-2.2728
30
0
11
76.8589
21
-4.4548
31
0
0
ARC
8
0
10
75.6569
20
-5.6569
30
0
40
1.7000
50
225.0000
51
405.0000
0
ARC
8
0
10
70.0000
20
0.0000
30
0
40
5.2000
50
334.0821
51
385.9179
0
CIRCLE
8
0
10
-71.0000
20
-38.0000
30
0
40
2.2500
0
CIRCLE
8
0
10
-71.0000
20
-80.0000
30
0
40
2.2500
0
CIRCLE
8
0
10
-71.0000
20
38.0000
30
0
40
2.2500
0
CIRCLE
8
0
10
-71.0000
20
80.0000
30
0
40
2.2500
0
CIRCLE
8
0
10
71.0000
20
-38.0000
30
0
40
2.2500
0
CIRCLE
8
0
10
71.0000
20
-80.0000
30
0
40
2.2500
0
CIRCLE
8
0
10
71.0000
20
38.0000
30
0
40
2.2500
0
CIRCLE
8
0
10
71.0000
20
80.0000
30
0
40
2.2500
0
ENDSEC
0
EOF
