0
SECTION
2
HEADER
9
$ACADVER
1
AC1009
0
ENDSEC
0
SECTION
2
ENTITIES
0
CIRCLE
8
0
10
-45.0000
20
54.0000
30
0
40
3.2500
0
CIRCLE
8
0
10
-27.0000
20
27.0000
30
0
40
3.2500
0
CIRCLE
8
0
10
-90.0000
20
0.0000
30
0
40
3.2500
0
LINE
8
0
10
25.5000
20
131.5000
30
0
11
-124.5000
21
131.5000
31
0
0
LINE
8
0
10
-124.5000
20
131.5000
30
0
11
-124.5000
21
-68.5000
31
0
0
LINE
8
0
10
-124.5000
20
-68.5000
30
0
11
25.5000
21
-68.5000
31
0
0
LINE
8
0
10
25.5000
20
-68.5000
30
0
11
25.5000
21
131.5000
31
0
0
CIRCLE
8
0
10
-9.0000
20
0.0000
30
0
40
3.2500
0
CIRCLE
8
0
10
-63.0000
20
45.0000
30
0
40
3.2500
0
CIRCLE
8
0
10
-45.0000
20
18.0000
30
0
40
3.2500
0
CIRCLE
8
0
10
-99.0000
20
63.0000
30
0
40
3.2500
0
CIRCLE
8
0
10
-18.0000
20
63.0000
30
0
40
3.2500
0
CIRCLE
8
0
10
-81.0000
20
36.0000
30
0
40
3.2500
0
CIRCLE
8
0
10
0.0000
20
36.0000
30
0
40
3.2500
0
CIRCLE
8
0
10
-63.0000
20
9.0000
30
0
40
3.2500
0
CIRCLE
8
0
10
-36.0000
20
54.0000
30
0
40
3.2500
0
CIRCLE
8
0
10
-99.0000
20
27.0000
30
0
40
3.2500
0
CIRCLE
8
0
10
-18.0000
20
27.0000
30
0
40
3.2500
0
CIRCLE
8
0
10
-81.0000
20
0.0000
30
0
40
3.2500
0
CIRCLE
8
0
10
-54.0000
20
45.0000
30
0
40
3.2500
0
CIRCLE
8
0
10
-36.0000
20
18.0000
30
0
40
3.2500
0
CIRCLE
8
0
10
-9.0000
20
63.0000
30
0
40
3.2500
0
CIRCLE
8
0
10
-72.0000
20
36.0000
30
0
40
3.2500
0
CIRCLE
8
0
10
-54.0000
20
9.0000
30
0
40
3.2500
0
CIRCLE
8
0
10
-27.0000
20
54.0000
30
0
40
3.2500
0
CIRCLE
8
0
10
-90.0000
20
27.0000
30
0
40
3.2500
0
CIRCLE
8
0
10
-9.0000
20
27.0000
30
0
40
3.2500
0
CIRCLE
8
0
10
-72.0000
20
0.0000
30
0
40
3.2500
0
CIRCLE
8
0
10
-45.0000
20
45.0000
30
0
40
3.2500
0
CIRCLE
8
0
10
0.0000
20
63.0000
30
0
40
3.2500
0
CIRCLE
8
0
10
-63.0000
20
36.0000
30
0
40
3.2500
0
CIRCLE
8
0
10
-18.0000
20
54.0000
30
0
40
3.2500
0
CIRCLE
8
0
10
-81.0000
20
27.0000
30
0
40
3.2500
0
CIRCLE
8
0
10
-36.0000
20
45.0000
30
0
40
3.2500
0
CIRCLE
8
0
10
-99.0000
20
18.0000
30
0
40
3.2500
0
CIRCLE
8
0
10
-54.0000
20
36.0000
30
0
40
3.2500
0
CIRCLE
8
0
10
-9.0000
20
54.0000
30
0
40
3.2500
0
CIRCLE
8
0
10
-72.0000
20
27.0000
30
0
40
3.2500
0
CIRCLE
8
0
10
-27.0000
20
45.0000
30
0
40
3.2500
0
CIRCLE
8
0
10
-90.0000
20
18.0000
30
0
40
3.2500
0
CIRCLE
8
0
10
-45.0000
20
36.0000
30
0
40
3.2500
0
CIRCLE
8
0
10
0.0000
20
54.0000
30
0
40
3.2500
0
CIRCLE
8
0
10
-63.0000
20
27.0000
30
0
40
3.2500
0
CIRCLE
8
0
10
-18.0000
20
45.0000
30
0
40
3.2500
0
CIRCLE
8
0
10
-81.0000
20
18.0000
30
0
40
3.2500
0
CIRCLE
8
0
10
-36.0000
20
36.0000
30
0
40
3.2500
0
CIRCLE
8
0
10
-99.0000
20
9.0000
30
0
40
3.2500
0
CIRCLE
8
0
10
-54.0000
20
27.0000
30
0
40
3.2500
0
CIRCLE
8
0
10
-72.0000
20
18.0000
30
0
40
3.2500
0
CIRCLE
8
0
10
-90.0000
20
9.0000
30
0
40
3.2500
0
CIRCLE
8
0
10
-81.0000
20
9.0000
30
0
40
3.2500
0
CIRCLE
8
0
10
-72.0000
20
9.0000
30
0
40
3.2500
0
CIRCLE
8
0
10
-63.0000
20
18.0000
30
0
40
3.2500
0
CIRCLE
8
0
10
-54.0000
20
18.0000
30
0
40
3.2500
0
CIRCLE
8
0
10
-45.0000
20
27.0000
30
0
40
3.2500
0
CIRCLE
8
0
10
-36.0000
20
27.0000
30
0
40
3.2500
0
CIRCLE
8
0
10
-99.0000
20
0.0000
30
0
40
3.2500
0
CIRCLE
8
0
10
-9.0000
20
45.0000
30
0
40
3.2500
0
CIRCLE
8
0
10
-27.0000
20
36.0000
30
0
40
3.2500
0
CIRCLE
8
0
10
-18.0000
20
36.0000
30
0
40
3.2500
0
CIRCLE
8
0
10
-9.0000
20
36.0000
30
0
40
3.2500
0
CIRCLE
8
0
10
0.0000
20
45.0000
30
0
40
3.2500
0
CIRCLE
8
0
10
-27.0000
20
18.0000
30
0
40
3.2500
0
CIRCLE
8
0
10
-45.0000
20
9.0000
30
0
40
3.2500
0
CIRCLE
8
0
10
0.0000
20
27.0000
30
0
40
3.2500
0
CIRCLE
8
0
10
-63.0000
20
0.0000
30
0
40
3.2500
0
CIRCLE
8
0
10
-18.0000
20
18.0000
30
0
40
3.2500
0
CIRCLE
8
0
10
-36.0000
20
9.0000
30
0
40
3.2500
0
CIRCLE
8
0
10
-54.0000
20
0.0000
30
0
40
3.2500
0
CIRCLE
8
0
10
0.0000
20
0.0000
30
0
40
3.2500
0
CIRCLE
8
0
10
-9.0000
20
18.0000
30
0
40
3.2500
0
CIRCLE
8
0
10
-27.0000
20
9.0000
30
0
40
3.2500
0
CIRCLE
8
0
10
-45.0000
20
0.0000
30
0
40
3.2500
0
CIRCLE
8
0
10
0.0000
20
18.0000
30
0
40
3.2500
0
CIRCLE
8
0
10
-18.0000
20
9.0000
30
0
40
3.2500
0
CIRCLE
8
0
10
-36.0000
20
0.0000
30
0
40
3.2500
0
CIRCLE
8
0
10
-27.0000
20
0.0000
30
0
40
3.2500
0
CIRCLE
8
0
10
-18.0000
20
0.0000
30
0
40
3.2500
0
CIRCLE
8
0
10
-9.0000
20
9.0000
30
0
40
3.2500
0
CIRCLE
8
0
10
0.0000
20
9.0000
30
0
40
3.2500
0
CIRCLE
8
0
10
-90.0000
20
63.0000
30
0
40
3.2500
0
CIRCLE
8
0
10
-81.0000
20
63.0000
30
0
40
3.2500
0
CIRCLE
8
0
10
-99.0000
20
54.0000
30
0
40
3.2500
0
CIRCLE
8
0
10
-72.0000
20
63.0000
30
0
40
3.2500
0
CIRCLE
8
0
10
-90.0000
20
54.0000
30
0
40
3.2500
0
CIRCLE
8
0
10
-63.0000
20
63.0000
30
0
40
3.2500
0
CIRCLE
8
0
10
-81.0000
20
54.0000
30
0
40
3.2500
0
CIRCLE
8
0
10
-99.0000
20
45.0000
30
0
40
3.2500
0
CIRCLE
8
0
10
-54.0000
20
63.0000
30
0
40
3.2500
0
CIRCLE
8
0
10
-72.0000
20
54.0000
30
0
40
3.2500
0
CIRCLE
8
0
10
-90.0000
20
45.0000
30
0
40
3.2500
0
CIRCLE
8
0
10
-81.0000
20
45.0000
30
0
40
3.2500
0
CIRCLE
8
0
10
-72.0000
20
45.0000
30
0
40
3.2500
0
CIRCLE
8
0
10
-99.0000
20
36.0000
30
0
40
3.2500
0
CIRCLE
8
0
10
-90.0000
20
36.0000
30
0
40
3.2500
0
CIRCLE
8
0
10
-63.0000
20
54.0000
30
0
40
3.2500
0
CIRCLE
8
0
10
-54.0000
20
54.0000
30
0
40
3.2500
0
CIRCLE
8
0
10
-45.0000
20
63.0000
30
0
40
3.2500
0
CIRCLE
8
0
10
-36.0000
20
63.0000
30
0
40
3.2500
0
CIRCLE
8
0
10
-27.0000
20
63.0000
30
0
40
3.2500
0
CIRCLE
8
0
10
-114.5000
20
-27.4000
30
0
40
4.5000
0
CIRCLE
8
0
10
-114.5000
20
-45.9000
30
0
40
2.2500
0
CIRCLE
8
0
10
-114.5000
20
-8.9000
30
0
40
2.2500
0
CIRCLE
8
0
10
15.5000
20
-27.4000
30
0
40
4.5000
0
CIRCLE
8
0
10
15.5000
20
-45.9000
30
0
40
2.2500
0
CIRCLE
8
0
10
15.5000
20
-8.9000
30
0
40
2.2500
0
CIRCLE
8
0
10
-114.5000
20
90.4000
30
0
40
4.5000
0
CIRCLE
8
0
10
-114.5000
20
71.9000
30
0
40
2.2500
0
CIRCLE
8
0
10
-114.5000
20
108.9000
30
0
40
2.2500
0
CIRCLE
8
0
10
15.5000
20
90.4000
30
0
40
4.5000
0
CIRCLE
8
0
10
15.5000
20
71.9000
30
0
40
2.2500
0
CIRCLE
8
0
10
15.5000
20
108.9000
30
0
40
2.2500
0
CIRCLE
8
0
10
-49.5000
20
-47.5000
30
0
40
11.5000
0
CIRCLE
8
0
10
-65.0000
20
-63.0000
30
0
40
1.7000
0
CIRCLE
8
0
10
-65.0000
20
-32.0000
30
0
40
1.7000
0
CIRCLE
8
0
10
-34.0000
20
-63.0000
30
0
40
1.7000
0
CIRCLE
8
0
10
-34.0000
20
-32.0000
30
0
40
1.7000
0
LINE
8
0
10
-52.2500
20
83.5700
30
0
11
-52.2500
21
95.5700
31
0
0
LINE
8
0
10
-46.7500
20
83.5700
30
0
11
-46.7500
21
95.5700
31
0
0
ARC
8
0
10
-49.5000
20
95.5700
30
0
40
2.7500
50
0.0000
51
180.0000
0
ARC
8
0
10
-49.5000
20
83.5700
30
0
40
2.7500
50
180.0000
51
360.0000
0
CIRCLE
8
0
10
-60.5000
20
89.5700
30
0
40
1.7000
0
CIRCLE
8
0
10
-38.5000
20
89.5700
30
0
40
1.7000
0
CIRCLE
8
0
10
-117.5000
20
11.5000
30
0
40
2.2500
0
CIRCLE
8
0
10
-117.5000
20
51.5000
30
0
40
2.2500
0
CIRCLE
8
0
10
18.5000
20
11.5000
30
0
40
2.2500
0
CIRCLE
8
0
10
18.5000
20
51.5000
30
0
40
2.2500
0
CIRCLE
8
0
10
-118.5000
20
-60.5000
30
0
40
1.7000
0
CIRCLE
8
0
10
-90.5000
20
-60.5000
30
0
40
1.7000
0
CIRCLE
8
0
10
-8.5000
20
-60.5000
30
0
40
1.7000
0
CIRCLE
8
0
10
19.5000
20
-60.5000
30
0
40
1.7000
0
CIRCLE
8
0
10
-118.5000
20
123.5000
30
0
40
1.7000
0
CIRCLE
8
0
10
-90.5000
20
123.5000
30
0
40
1.7000
0
ENDSEC
0
EOF
