0
SECTION
2
HEADER
9
$ACADVER
1
AC1009
0
ENDSEC
0
SECTION
2
ENTITIES
0
CIRCLE
8
0
10
-97.0000
20
-121.5000
30
0
40
2.2500
0
CIRCLE
8
0
10
-2.0000
20
58.5000
30
0
40
2.2500
0
CIRCLE
8
0
10
-97.0000
20
58.5000
30
0
40
2.2500
0
CIRCLE
8
0
10
-2.0000
20
-121.5000
30
0
40
2.2500
0
CIRCLE
8
0
10
15.5000
20
16.0000
30
0
40
2.2500
0
CIRCLE
8
0
10
-114.5000
20
-79.0000
30
0
40
2.2500
0
CIRCLE
8
0
10
15.5000
20
-79.0000
30
0
40
2.2500
0
CIRCLE
8
0
10
-114.5000
20
16.0000
30
0
40
2.2500
0
CIRCLE
8
0
10
-45.0000
20
-54.0000
30
0
40
1.6000
0
CIRCLE
8
0
10
-27.0000
20
-27.0000
30
0
40
1.6000
0
LINE
8
0
10
-124.5000
20
-131.5000
30
0
11
25.5000
21
-131.5000
31
0
0
LINE
8
0
10
25.5000
20
-131.5000
30
0
11
25.5000
21
68.5000
31
0
0
LINE
8
0
10
25.5000
20
68.5000
30
0
11
-124.5000
21
68.5000
31
0
0
LINE
8
0
10
-124.5000
20
68.5000
30
0
11
-124.5000
21
-131.5000
31
0
0
CIRCLE
8
0
10
-90.0000
20
0.0000
30
0
40
1.6000
0
CIRCLE
8
0
10
-9.0000
20
0.0000
30
0
40
1.6000
0
CIRCLE
8
0
10
-63.0000
20
-45.0000
30
0
40
1.6000
0
CIRCLE
8
0
10
-45.0000
20
-18.0000
30
0
40
1.6000
0
CIRCLE
8
0
10
-99.0000
20
-63.0000
30
0
40
1.6000
0
CIRCLE
8
0
10
-18.0000
20
-63.0000
30
0
40
1.6000
0
CIRCLE
8
0
10
-81.0000
20
-36.0000
30
0
40
1.6000
0
CIRCLE
8
0
10
0.0000
20
-36.0000
30
0
40
1.6000
0
CIRCLE
8
0
10
-63.0000
20
-9.0000
30
0
40
1.6000
0
CIRCLE
8
0
10
-36.0000
20
-54.0000
30
0
40
1.6000
0
CIRCLE
8
0
10
-99.0000
20
-27.0000
30
0
40
1.6000
0
CIRCLE
8
0
10
-18.0000
20
-27.0000
30
0
40
1.6000
0
CIRCLE
8
0
10
-81.0000
20
0.0000
30
0
40
1.6000
0
CIRCLE
8
0
10
-54.0000
20
-45.0000
30
0
40
1.6000
0
CIRCLE
8
0
10
-36.0000
20
-18.0000
30
0
40
1.6000
0
CIRCLE
8
0
10
-9.0000
20
-63.0000
30
0
40
1.6000
0
CIRCLE
8
0
10
-72.0000
20
-36.0000
30
0
40
1.6000
0
CIRCLE
8
0
10
-54.0000
20
-9.0000
30
0
40
1.6000
0
CIRCLE
8
0
10
-27.0000
20
-54.0000
30
0
40
1.6000
0
CIRCLE
8
0
10
-90.0000
20
-27.0000
30
0
40
1.6000
0
CIRCLE
8
0
10
-9.0000
20
-27.0000
30
0
40
1.6000
0
CIRCLE
8
0
10
-72.0000
20
0.0000
30
0
40
1.6000
0
CIRCLE
8
0
10
-45.0000
20
-45.0000
30
0
40
1.6000
0
CIRCLE
8
0
10
0.0000
20
-63.0000
30
0
40
1.6000
0
CIRCLE
8
0
10
-63.0000
20
-36.0000
30
0
40
1.6000
0
CIRCLE
8
0
10
-18.0000
20
-54.0000
30
0
40
1.6000
0
CIRCLE
8
0
10
-81.0000
20
-27.0000
30
0
40
1.6000
0
CIRCLE
8
0
10
-36.0000
20
-45.0000
30
0
40
1.6000
0
CIRCLE
8
0
10
-99.0000
20
-18.0000
30
0
40
1.6000
0
CIRCLE
8
0
10
-54.0000
20
-36.0000
30
0
40
1.6000
0
CIRCLE
8
0
10
-9.0000
20
-54.0000
30
0
40
1.6000
0
CIRCLE
8
0
10
-72.0000
20
-27.0000
30
0
40
1.6000
0
CIRCLE
8
0
10
-27.0000
20
-45.0000
30
0
40
1.6000
0
CIRCLE
8
0
10
-90.0000
20
-18.0000
30
0
40
1.6000
0
CIRCLE
8
0
10
-45.0000
20
-36.0000
30
0
40
1.6000
0
CIRCLE
8
0
10
0.0000
20
-54.0000
30
0
40
1.6000
0
CIRCLE
8
0
10
-63.0000
20
-27.0000
30
0
40
1.6000
0
CIRCLE
8
0
10
-18.0000
20
-45.0000
30
0
40
1.6000
0
CIRCLE
8
0
10
-81.0000
20
-18.0000
30
0
40
1.6000
0
CIRCLE
8
0
10
-36.0000
20
-36.0000
30
0
40
1.6000
0
CIRCLE
8
0
10
-99.0000
20
-9.0000
30
0
40
1.6000
0
CIRCLE
8
0
10
-54.0000
20
-27.0000
30
0
40
1.6000
0
CIRCLE
8
0
10
-72.0000
20
-18.0000
30
0
40
1.6000
0
CIRCLE
8
0
10
-90.0000
20
-9.0000
30
0
40
1.6000
0
CIRCLE
8
0
10
-81.0000
20
-9.0000
30
0
40
1.6000
0
CIRCLE
8
0
10
-72.0000
20
-9.0000
30
0
40
1.6000
0
CIRCLE
8
0
10
-63.0000
20
-18.0000
30
0
40
1.6000
0
CIRCLE
8
0
10
-54.0000
20
-18.0000
30
0
40
1.6000
0
CIRCLE
8
0
10
-45.0000
20
-27.0000
30
0
40
1.6000
0
CIRCLE
8
0
10
-36.0000
20
-27.0000
30
0
40
1.6000
0
CIRCLE
8
0
10
-99.0000
20
0.0000
30
0
40
1.6000
0
CIRCLE
8
0
10
-9.0000
20
-45.0000
30
0
40
1.6000
0
CIRCLE
8
0
10
-27.0000
20
-36.0000
30
0
40
1.6000
0
CIRCLE
8
0
10
-18.0000
20
-36.0000
30
0
40
1.6000
0
CIRCLE
8
0
10
-9.0000
20
-36.0000
30
0
40
1.6000
0
CIRCLE
8
0
10
0.0000
20
-45.0000
30
0
40
1.6000
0
CIRCLE
8
0
10
-27.0000
20
-18.0000
30
0
40
1.6000
0
CIRCLE
8
0
10
-45.0000
20
-9.0000
30
0
40
1.6000
0
CIRCLE
8
0
10
0.0000
20
-27.0000
30
0
40
1.6000
0
CIRCLE
8
0
10
-63.0000
20
0.0000
30
0
40
1.6000
0
CIRCLE
8
0
10
-18.0000
20
-18.0000
30
0
40
1.6000
0
CIRCLE
8
0
10
-36.0000
20
-9.0000
30
0
40
1.6000
0
CIRCLE
8
0
10
-54.0000
20
0.0000
30
0
40
1.6000
0
CIRCLE
8
0
10
0.0000
20
0.0000
30
0
40
1.6000
0
CIRCLE
8
0
10
-9.0000
20
-18.0000
30
0
40
1.6000
0
CIRCLE
8
0
10
-27.0000
20
-9.0000
30
0
40
1.6000
0
CIRCLE
8
0
10
-45.0000
20
0.0000
30
0
40
1.6000
0
CIRCLE
8
0
10
0.0000
20
-18.0000
30
0
40
1.6000
0
CIRCLE
8
0
10
-18.0000
20
-9.0000
30
0
40
1.6000
0
CIRCLE
8
0
10
-36.0000
20
0.0000
30
0
40
1.6000
0
CIRCLE
8
0
10
-27.0000
20
0.0000
30
0
40
1.6000
0
CIRCLE
8
0
10
-18.0000
20
0.0000
30
0
40
1.6000
0
CIRCLE
8
0
10
-9.0000
20
-9.0000
30
0
40
1.6000
0
CIRCLE
8
0
10
0.0000
20
-9.0000
30
0
40
1.6000
0
CIRCLE
8
0
10
-90.0000
20
-63.0000
30
0
40
1.6000
0
CIRCLE
8
0
10
-81.0000
20
-63.0000
30
0
40
1.6000
0
CIRCLE
8
0
10
-99.0000
20
-54.0000
30
0
40
1.6000
0
CIRCLE
8
0
10
-72.0000
20
-63.0000
30
0
40
1.6000
0
CIRCLE
8
0
10
-90.0000
20
-54.0000
30
0
40
1.6000
0
CIRCLE
8
0
10
-63.0000
20
-63.0000
30
0
40
1.6000
0
CIRCLE
8
0
10
-81.0000
20
-54.0000
30
0
40
1.6000
0
CIRCLE
8
0
10
-99.0000
20
-45.0000
30
0
40
1.6000
0
CIRCLE
8
0
10
-54.0000
20
-63.0000
30
0
40
1.6000
0
CIRCLE
8
0
10
-72.0000
20
-54.0000
30
0
40
1.6000
0
CIRCLE
8
0
10
-90.0000
20
-45.0000
30
0
40
1.6000
0
CIRCLE
8
0
10
-81.0000
20
-45.0000
30
0
40
1.6000
0
CIRCLE
8
0
10
-72.0000
20
-45.0000
30
0
40
1.6000
0
CIRCLE
8
0
10
-99.0000
20
-36.0000
30
0
40
1.6000
0
CIRCLE
8
0
10
-90.0000
20
-36.0000
30
0
40
1.6000
0
CIRCLE
8
0
10
-63.0000
20
-54.0000
30
0
40
1.6000
0
CIRCLE
8
0
10
-54.0000
20
-54.0000
30
0
40
1.6000
0
CIRCLE
8
0
10
-45.0000
20
-63.0000
30
0
40
1.6000
0
CIRCLE
8
0
10
-36.0000
20
-63.0000
30
0
40
1.6000
0
CIRCLE
8
0
10
-27.0000
20
-63.0000
30
0
40
1.6000
0
LINE
8
0
10
-110.3517
20
-88.6559
30
0
11
-107.6411
21
-85.9452
31
0
0
LINE
8
0
10
-112.7559
20
-86.2517
30
0
11
-110.0452
21
-83.5411
31
0
0
ARC
8
0
10
-108.8431
20
-84.7431
30
0
40
1.7000
50
-45.0000
51
135.0000
0
ARC
8
0
10
-114.5000
20
-90.4000
30
0
40
4.5000
50
67.1961
51
112.8039
0
LINE
8
0
10
-116.2441
20
-86.2517
30
0
11
-118.9548
21
-83.5411
31
0
0
LINE
8
0
10
-118.6483
20
-88.6559
30
0
11
-121.3589
21
-85.9452
31
0
0
ARC
8
0
10
-120.1569
20
-84.7431
30
0
40
1.7000
50
45.0000
51
225.0000
0
ARC
8
0
10
-114.5000
20
-90.4000
30
0
40
4.5000
50
157.1961
51
202.8039
0
LINE
8
0
10
-118.6483
20
-92.1441
30
0
11
-121.3589
21
-94.8548
31
0
0
LINE
8
0
10
-116.2441
20
-94.5483
30
0
11
-118.9548
21
-97.2589
31
0
0
ARC
8
0
10
-120.1569
20
-96.0569
30
0
40
1.7000
50
135.0000
51
315.0000
0
ARC
8
0
10
-114.5000
20
-90.4000
30
0
40
4.5000
50
247.1961
51
292.8039
0
LINE
8
0
10
-112.7559
20
-94.5483
30
0
11
-110.0452
21
-97.2589
31
0
0
LINE
8
0
10
-110.3517
20
-92.1441
30
0
11
-107.6411
21
-94.8548
31
0
0
ARC
8
0
10
-108.8431
20
-96.0569
30
0
40
1.7000
50
225.0000
51
405.0000
0
ARC
8
0
10
-114.5000
20
-90.4000
30
0
40
4.5000
50
337.1961
51
382.8039
0
LINE
8
0
10
19.6483
20
-88.6559
30
0
11
22.3589
21
-85.9452
31
0
0
LINE
8
0
10
17.2441
20
-86.2517
30
0
11
19.9548
21
-83.5411
31
0
0
ARC
8
0
10
21.1569
20
-84.7431
30
0
40
1.7000
50
-45.0000
51
135.0000
0
ARC
8
0
10
15.5000
20
-90.4000
30
0
40
4.5000
50
67.1961
51
112.8039
0
LINE
8
0
10
13.7559
20
-86.2517
30
0
11
11.0452
21
-83.5411
31
0
0
LINE
8
0
10
11.3517
20
-88.6559
30
0
11
8.6411
21
-85.9452
31
0
0
ARC
8
0
10
9.8431
20
-84.7431
30
0
40
1.7000
50
45.0000
51
225.0000
0
ARC
8
0
10
15.5000
20
-90.4000
30
0
40
4.5000
50
157.1961
51
202.8039
0
LINE
8
0
10
11.3517
20
-92.1441
30
0
11
8.6411
21
-94.8548
31
0
0
LINE
8
0
10
13.7559
20
-94.5483
30
0
11
11.0452
21
-97.2589
31
0
0
ARC
8
0
10
9.8431
20
-96.0569
30
0
40
1.7000
50
135.0000
51
315.0000
0
ARC
8
0
10
15.5000
20
-90.4000
30
0
40
4.5000
50
247.1961
51
292.8039
0
LINE
8
0
10
17.2441
20
-94.5483
30
0
11
19.9548
21
-97.2589
31
0
0
LINE
8
0
10
19.6483
20
-92.1441
30
0
11
22.3589
21
-94.8548
31
0
0
ARC
8
0
10
21.1569
20
-96.0569
30
0
40
1.7000
50
225.0000
51
405.0000
0
ARC
8
0
10
15.5000
20
-90.4000
30
0
40
4.5000
50
337.1961
51
382.8039
0
LINE
8
0
10
-110.3517
20
29.1441
30
0
11
-107.6411
21
31.8548
31
0
0
LINE
8
0
10
-112.7559
20
31.5483
30
0
11
-110.0452
21
34.2589
31
0
0
ARC
8
0
10
-108.8431
20
33.0569
30
0
40
1.7000
50
-45.0000
51
135.0000
0
ARC
8
0
10
-114.5000
20
27.4000
30
0
40
4.5000
50
67.1961
51
112.8039
0
LINE
8
0
10
-116.2441
20
31.5483
30
0
11
-118.9548
21
34.2589
31
0
0
LINE
8
0
10
-118.6483
20
29.1441
30
0
11
-121.3589
21
31.8548
31
0
0
ARC
8
0
10
-120.1569
20
33.0569
30
0
40
1.7000
50
45.0000
51
225.0000
0
ARC
8
0
10
-114.5000
20
27.4000
30
0
40
4.5000
50
157.1961
51
202.8039
0
LINE
8
0
10
-118.6483
20
25.6559
30
0
11
-121.3589
21
22.9452
31
0
0
LINE
8
0
10
-116.2441
20
23.2517
30
0
11
-118.9548
21
20.5411
31
0
0
ARC
8
0
10
-120.1569
20
21.7431
30
0
40
1.7000
50
135.0000
51
315.0000
0
ARC
8
0
10
-114.5000
20
27.4000
30
0
40
4.5000
50
247.1961
51
292.8039
0
LINE
8
0
10
-112.7559
20
23.2517
30
0
11
-110.0452
21
20.5411
31
0
0
LINE
8
0
10
-110.3517
20
25.6559
30
0
11
-107.6411
21
22.9452
31
0
0
ARC
8
0
10
-108.8431
20
21.7431
30
0
40
1.7000
50
225.0000
51
405.0000
0
ARC
8
0
10
-114.5000
20
27.4000
30
0
40
4.5000
50
337.1961
51
382.8039
0
LINE
8
0
10
19.6483
20
29.1441
30
0
11
22.3589
21
31.8548
31
0
0
LINE
8
0
10
17.2441
20
31.5483
30
0
11
19.9548
21
34.2589
31
0
0
ARC
8
0
10
21.1569
20
33.0569
30
0
40
1.7000
50
-45.0000
51
135.0000
0
ARC
8
0
10
15.5000
20
27.4000
30
0
40
4.5000
50
67.1961
51
112.8039
0
LINE
8
0
10
13.7559
20
31.5483
30
0
11
11.0452
21
34.2589
31
0
0
LINE
8
0
10
11.3517
20
29.1441
30
0
11
8.6411
21
31.8548
31
0
0
ARC
8
0
10
9.8431
20
33.0569
30
0
40
1.7000
50
45.0000
51
225.0000
0
ARC
8
0
10
15.5000
20
27.4000
30
0
40
4.5000
50
157.1961
51
202.8039
0
LINE
8
0
10
11.3517
20
25.6559
30
0
11
8.6411
21
22.9452
31
0
0
LINE
8
0
10
13.7559
20
23.2517
30
0
11
11.0452
21
20.5411
31
0
0
ARC
8
0
10
9.8431
20
21.7431
30
0
40
1.7000
50
135.0000
51
315.0000
0
ARC
8
0
10
15.5000
20
27.4000
30
0
40
4.5000
50
247.1961
51
292.8039
0
LINE
8
0
10
17.2441
20
23.2517
30
0
11
19.9548
21
20.5411
31
0
0
LINE
8
0
10
19.6483
20
25.6559
30
0
11
22.3589
21
22.9452
31
0
0
ARC
8
0
10
21.1569
20
21.7431
30
0
40
1.7000
50
225.0000
51
405.0000
0
ARC
8
0
10
15.5000
20
27.4000
30
0
40
4.5000
50
337.1961
51
382.8039
0
ENDSEC
0
EOF
